<svg width="168" height="32" viewBox="0 0 168 32" xmlns="http://www.w3.org/2000/svg">
    <g fill="none" fill-rule="evenodd">
        <path d="M39.84 18.06c-.005.281.042.561.14.825.28.763 1.129.917 1.85.917.722 0 1.604-.217 1.604-1.14 0-.651-.546-.826-2.71-1.448-1.997-.56-4.295-1.127-4.295-3.638 0-2.902 2.487-4.147 5.072-4.147 2.732 0 5.142 1.035 5.254 4.098h-3.636a.972.972 0 0 0-.462-1.007 1.985 1.985 0 0 0-1.142-.315c-.533 0-1.401.14-1.401.847.07.895 1.87 1.084 3.65 1.58 1.78.497 3.537 1.316 3.537 3.624 0 3.273-3.012 4.322-5.814 4.322-1.401 0-5.493-.51-5.528-4.518h3.882zM51.253 12.17H47.75V9.722h3.503v2.448zm-3.503.987h3.503v9.128H47.75v-9.128zM62.35 22.285h-3.363v-1.008h-.07c-.442.58-.967 1.231-2.676 1.231-2.593 0-3.84-2.546-3.84-4.833 0-2.147.827-4.75 3.896-4.75a2.965 2.965 0 0 1 2.494 1.232h.056V9.722h3.502v12.563zm-4.905-6.827c-1.247 0-1.527 1.182-1.527 2.252 0 1.07.28 2.266 1.527 2.266 1.247 0 1.535-1.175 1.535-2.266s-.309-2.252-1.535-2.252zM73.026 22.285h-3.363v-1.008c-.441.58-.967 1.231-2.676 1.231-2.592 0-3.839-2.546-3.839-4.833 0-2.147.827-4.75 3.888-4.75a2.993 2.993 0 0 1 2.508 1.232V9.722h3.503l-.021 12.563zm-4.904-6.827c-1.247 0-1.527 1.182-1.527 2.252 0 1.07.28 2.266 1.527 2.266 1.247 0 1.534-1.175 1.534-2.266s-.301-2.252-1.527-2.252h-.007zM74.07 9.722h3.502v4.414h.035a3.372 3.372 0 0 1 2.852-1.21c.842-.058 1.669.249 2.27.842.6.593.916 1.415.868 2.256v6.296h-3.503v-4.834c0-1.056-.126-1.797-1.149-1.797-.595 0-1.4.3-1.4 1.762v4.82h-3.503l.028-12.549zM93.818 20.242a3.71 3.71 0 0 0 .42 2.043H90.68a2.319 2.319 0 0 1-.12-.868h-.041a3.688 3.688 0 0 1-2.95 1.091c-1.765 0-3.23-.839-3.23-2.755 0-2.89 3.384-2.798 5.164-3.113.476-.09.953-.23.953-.811 0-.58-.582-.847-1.15-.847-1.071 0-1.281.546-1.302.93h-3.237c.105-2.566 2.536-2.986 4.7-2.986 4.372 0 4.337 1.811 4.337 3.567l.014 3.75zm-3.348-2.056a6.053 6.053 0 0 1-1.401.44c-.778.175-1.184.364-1.184.987.086.523.564.89 1.092.839a1.402 1.402 0 0 0 1.465-1.399l.028-.867zM95.17 13.157h3.349v1.455h.035a2.683 2.683 0 0 1 2.571-1.686 4.21 4.21 0 0 1 1.023.14v3.077a3.606 3.606 0 0 0-1.401-.23c-1.401 0-2.102.81-2.102 2.762v3.61h-3.503l.028-9.128zM107.717 13.157h1.864v2.14h-1.864v3.19c0 .839.19 1.21 1.072 1.21.265 0 .53-.016.792-.05v2.638c-.7 0-1.5.105-2.235.105-1.478 0-3.117-.231-3.117-2.728v-4.365h-1.549v-2.14h1.549v-2.798h3.502l-.014 2.798zM110.323 9.722h3.503v4.414a3.372 3.372 0 0 1 2.851-1.21c.843-.058 1.67.249 2.27.842.6.593.917 1.415.869 2.256v6.296h-3.503v-4.834c0-1.056-.126-1.797-1.149-1.797-.595 0-1.4.3-1.4 1.762v4.82h-3.504l.063-12.549zM130.303 20.242c-.059.708.09 1.418.427 2.043h-3.558a2.48 2.48 0 0 1-.126-.868h-.035a3.702 3.702 0 0 1-2.943 1.091c-1.758 0-3.222-.839-3.222-2.755 0-2.89 3.383-2.798 5.163-3.113.476-.09.953-.23.953-.811 0-.58-.582-.847-1.15-.847-1.071 0-1.281.546-1.302.93h-3.244c.112-2.566 2.543-2.986 4.708-2.986 4.364 0 4.33 1.811 4.33 3.567v3.75zm-3.348-2.056c-.448.202-.918.35-1.402.44-.77.175-1.177.364-1.177.987.083.525.563.894 1.093.839a1.402 1.402 0 0 0 1.464-1.399l.022-.867zM132.454 9.722h5.317c2.102 0 4.035.742 4.035 3.078a2.862 2.862 0 0 1-2.185 2.798v.035a2.94 2.94 0 0 1 2.655 3.056c0 1.196-.42 3.575-4.505 3.575h-5.317V9.722zm1.198 5.505h4.12c1.919 0 2.836-.944 2.836-2.098 0-1.567-.973-2.357-2.837-2.357h-4.12v4.455zm0 6.036h4.12c1.778 0 3.313-.58 3.313-2.588 0-1.601-1.22-2.427-3.314-2.427h-4.12v5.015zM143.18 15.99c.104-2.134 1.604-3.05 3.677-3.05 1.605 0 3.349.497 3.349 2.924v4.819a.587.587 0 0 0 .651.664c.12-.002.24-.026.35-.07v.938c-.23.048-.464.072-.7.07-1.128 0-1.303-.637-1.303-1.588a3.455 3.455 0 0 1-3.314 1.846c-1.667 0-3.04-.825-3.04-2.65 0-2.554 2.48-2.637 4.904-2.924.918-.105 1.401-.224 1.401-1.231 0-1.49-1.079-1.86-2.382-1.86-1.303 0-2.396.629-2.43 2.098l-1.164.014zm5.919 1.335h-.035c-.14.26-.637.35-.939.4-1.884.335-4.203.32-4.203 2.098a1.887 1.887 0 0 0 2.025 1.79c1.695 0 3.187-1.07 3.173-2.847l-.021-1.44zM151.705 13.206h1.107v1.566h.035a3.09 3.09 0 0 1 2.907-1.832c2.557 0 3.335 1.343 3.335 3.497v5.84h-1.114v-5.665c0-1.567-.511-2.742-2.305-2.742-1.793 0-2.802 1.336-2.858 3.113v5.295h-1.107v-9.072zM160.105 9.722h1.114v7.883l5.037-4.4h1.478l-3.874 3.358 4.14 5.722h-1.401l-3.594-4.946-1.793 1.497v3.449h-1.114z" fill="#231F20" fill-rule="nonzero"/>
        <path fill="#231F20" d="M16.267 0 0 16.241 16.029 32 32.05 16.241z"/>
        <path d="M10.452 23.117c.12.175.292.31.49.385.463.181.988 0 1.584-.574a5.483 5.483 0 0 0 1.219-1.818 27.63 27.63 0 0 0 1.219-4.323c.38-1.871.947-3.699 1.695-5.456a10.304 10.304 0 0 1 2.256-3.091c1.044-.994 1.969-1.4 2.753-1.155.204.057.395.155.56.287l-.427.958c-.45-.135-.938.02-1.226.392-.733.695-1.434 2.56-2.101 5.596-.169.762-.309 1.35-.4 1.762a18.292 18.292 0 0 1-1.499 4.31 11.367 11.367 0 0 1-2.319 3.119c-1.184 1.119-2.213 1.58-3.103 1.399A1.842 1.842 0 0 1 9.85 23.78l.602-.664z" fill="#FDB913" fill-rule="nonzero"/>
    </g>
</svg>
